<?xml version="1.0" encoding="UTF-8"?>
<svg id="Layer_2" data-name="Layer 2" xmlns="http://www.w3.org/2000/svg" viewBox="0 0 102.54 130.97">
  <defs>
    <style>
      .cls-1 {
        fill: #327c83;
      }
    </style>
  </defs>
  <g id="Design_2" data-name="Design 2">
    <g id="D2_elemwnts" data-name="D2 elemwnts">
      <g id="Layer_2-2" data-name="Layer 2">
        <g id="_Ñëîé_1" data-name="Ñëîé 1">
          <path class="cls-1" d="M92.3,25.64c-8.34,3.07-32.37,31.51-34.18,33.64,13.55-24.5,17.7-46.85,8.65-55.98-.93-.93-3.78-3.77-6.8-3.23-9.46,1.76-10.94,34.74-10.65,62.86-1.26-8.37-5-25.06-16.67-35.23-2.96-2.58-8.35-7.28-13.6-5.74-2.47.89-4.51,2.67-5.71,5.01-1.21,2.85-1.29,6.07-.22,9,2.86,9.59,11.77,11.04,20.58,22.08,2.5,3.13,4.61,6.54,6.3,10.16-12.84-8.16-27.15-7.13-34.39.65-4.46,4.76-7.49,13.31-4.28,17.05,2.84,3.25,11.34,3.99,37.22-8.44-10.47,7.34-15.1,16.69-12.47,22.4.98,2.26,3,3.9,5.4,4.39,5.43.74,12.23-7,16.11-20.03.17,4.58,2.29,44.5,14.69,46.67,1.85.25,3.72-.2,5.24-1.26,11.12-7.84-4.55-47.08-5.96-50.53,15.53,8.7,28.74,10.75,33.06,5.54,1.57-2.11,2.03-4.87,1.23-7.4-2.12-6.92-13.99-11.23-29.83-9.53,5.92-4.12,39.09-27.41,36.37-36.36-.59-2.53-2.22-4.69-4.49-5.94-1.83-.63-3.83-.55-5.6.22Z"/>
        </g>
      </g>
    </g>
  </g>
</svg>