<?xml version="1.0" encoding="UTF-8"?>
<svg id="Layer_2" data-name="Layer 2" xmlns="http://www.w3.org/2000/svg" viewBox="0 0 444.6 504.51">
  <defs>
    <style>
      .cls-1 {
        fill: #b8c5df;
        fill-rule: evenodd;
      }
    </style>
  </defs>
  <g id="Design_2" data-name="Design 2">
    <g id="D2_elemwnts" data-name="D2 elemwnts">
      <path class="cls-1" d="M185.97,97.46c-12.73-10.97-17.35-27.45-21.4-43.54-5.99-23.82-20.27-40.84-39.49-53.92h-26.29c-.12.82-.23,1.67-.31,2.6-2.33,28.7-6.29,60.91,11.8,82.85,30.1,36.52,40.14,85.27,75.39,118.78-29.42-15.22-58.47-31.19-86.23-49.16-30.85-19.95-64.02-23-99.44-19.08,29.57,64.94,61.91,86.61,129.9,86.96,27.31.15,54.72-1.3,84.6,14.06,1.85-2.31,1.28-18.61,1-20.49-6.21-40.44,8.61-86.23-29.52-119.05Z"/>
      <path class="cls-1" d="M235.1,244.79c19.48-17.42,26.04-37.72,33.74-57.51,19.16-49.25,43.9-66.71,99.31-70.14-7.01,26.81-18.44,50.04-41.52,66.89-20.77,15.17-40.45,31.82-59.69,48.95,34.14-16.28,72.36-10.02,107.26-21.72,20.97-7.04,43.27,4.79,63.48,14.45,8.38,4,9.34,8.3,1.83,14.47-16.77,13.77-35.33,21.89-57.48,19.24-12.83-1.54-56.63,4.45-88.71.33-46.97-.3-29.24-.93-60.35-7.66-1.45-.31-.1-4.12,2.14-7.29Z"/>
      <path class="cls-1" d="M235.93,269.04c12.05,4.89,22.58,3.38,33.11,2.5,26.23-2.21,39.46,5.03,53.1,29.05-13.53,2.74-26.43,2.71-39.02-3.93-11.33-5.96-23.08-11.12-34.95-15.97,14.75,11.69,20.31,30.16,33.19,43.21,7.73,7.83,7.31,20.4,7.41,31.54.04,4.63-1.67,5.99-6.08,3.99-9.83-4.48-17.52-11.01-21.18-21.49-2.11-6.08-14.37-24.35-19.54-39.6-10.14-21.07-5.98-13.28-9.77-28.67-.17-.71,0-1.93,3.73-.63Z"/>
      <path class="cls-1" d="M217.28,265.9c-5.12,33.65,5.11,59.51,13.78,85.78,21.57,65.4,11.18,103.46-41.68,152.83-15.2-32.75-22.96-65.58-13.73-101.65,8.31-32.46,14.29-65.53,19.43-98.68-20.82,44.67-64.43,70.06-89.82,110.76-15.26,24.44-47.47,31.05-75.8,38.09-11.75,2.91-16.27-.6-13.84-13.05,5.44-27.74,17.37-51.29,41.84-66.98,14.16-9.1,19.15-19.47,34.93-34.62,58.67-63.55,68.01-47.79,104.87-66.81,1.72-.9,10.25-3.02,20.01-5.67Z"/>
      <path class="cls-1" d="M225.37,42.15c-.34.57-.47,1.23-.38,1.88.75,5.37-.23,10.8-1.3,15.41-3.69,16.15-2.2,32.54,4.54,50.15,3.07,7.98,3.49,15.78,1.3,23.85-4.36,16.14-3.5,32.58-2.25,48.04.79,9.64,1.41,19.88-.52,29.82-.6,3.06-4.09,20.72,16.77,3.36,2.77-3.29,5.54-6.71,7.94-10.47,5.5-8.69,8.61-17.97,11.32-26.73.04-.12.07-.24.09-.36.09-.48.15-.95.23-1.43.15-.97.28-1.88.51-2.73,7.98-30.71,6.9-55.35-3.38-77.54-3.12-6.85-7.07-13.35-10.88-19.63-6.34-10.42-12.32-20.28-15.03-31.84-.36-1.55-1.21-3.01-2.28-3.93-.27-.22-.54-.41-.83-.57-1.5-.84-2.7-.65-3.45-.36-1.64.65-2.12,2.16-2.35,2.89,0,.06-.03.13-.05.18Z"/>
      <path class="cls-1" d="M23.02,311.55c.63.17,1.31.11,1.91-.17,4.97-2.28,10.46-2.88,15.18-3.16,16.51-1.03,31.91-7.18,47.13-18.82,6.89-5.29,14.3-7.93,22.64-8.11,16.67-.37,32.28-5.93,46.85-11.59,9.08-3.54,18.78-7.08,28.86-8.04,3.1-.29,21.02-1.95-1.11-17.34-3.89-1.75-7.9-3.49-12.14-4.74-9.79-2.88-19.53-3.25-28.67-3.38-.12,0-.25,0-.37.02-.48.05-.95.12-1.43.18-.97.14-1.89.26-2.76.29-31.64,1.02-55.09,9.15-73.81,25.55-5.79,5.01-11.03,10.73-16.09,16.25-8.4,9.17-16.35,17.84-26.78,23.81-1.4.8-2.59,2.05-3.19,3.35-.15.32-.26.65-.33.97-.42,1.7.07,2.82.54,3.47,1.05,1.42,2.63,1.45,3.39,1.47.06-.01.13,0,.19,0Z"/>
      <path class="cls-1" d="M230.31,261.28c16.05,8.13,30.68,7.7,45.27,8.07,36.31.94,53.71,12.3,69.88,45.59-18.9,1.6-36.62-.32-53.22-10.79-14.93-9.43-30.55-17.86-46.34-25.92,19.02,17.4,24.67,42.26,40.96,61.14,9.78,11.34,7.86,27.64,6.79,42.19-.45,6.03-2.95,7.56-8.8,4.31-13.03-7.28-22.9-16.9-26.8-31.09-2.26-8.22-6.66-12.33-11.69-22.34-22.34-38.44-12.92-40.16-16.47-60.76-.17-.96-1.98-7.99.41-10.39Z"/>
    </g>
  </g>
</svg>